<?xml version="1.0" standalone="no"?>
<!DOCTYPE svg PUBLIC "-//W3C//DTD SVG 20010904//EN"
 "http://www.w3.org/TR/2001/REC-SVG-20010904/DTD/svg10.dtd">
<svg version="1.0" 
xmlns="http://www.w3.org/2000/svg"
width="50px" height="50px" viewBox="0 0 300.000000 300.000000"
preserveAspectRatio="xMidYMid meet">
<metadata>
Created by potrace 1.10, written by Peter Selinger 2001-2011
</metadata>
<g transform="translate(0.000000,300.000000) scale(0.050000,-0.050000)"
fill="#FF0000" stroke="none">
<path d="M893 5115 c-1076 -1100 -1174 -2705 -242 -3946 301 -401 464 -494
626 -358 143 120 129 233 -59 451 -951 1105 -949 2403 5 3481 181 205 196 327
54 446 -117 99 -237 76 -384 -74z"/>
<path d="M4723 5189 c-142 -119 -127 -241 54 -446 954 -1078 956 -2376 5
-3481 -188 -218 -202 -331 -59 -451 162 -136 325 -43 626 358 850 1133 858
2487 21 3633 -307 420 -483 526 -647 387z"/>
<path d="M1630 4463 c-275 -171 -559 -751 -614 -1258 -100 -912 619 -2113 945
-1579 74 122 55 187 -113 390 -461 560 -461 1408 0 1968 168 203 187 268 113
390 -73 120 -218 159 -331 89z"/>
<path d="M4126 4461 c-176 -108 -169 -241 26 -477 461 -560 461 -1408 0 -1968
-168 -203 -187 -268 -113 -390 255 -418 852 320 945 1169 89 815 -471 1902
-858 1666z"/>
<path d="M2810 3981 c-1173 -254 -1008 -1968 190 -1968 991 0 1369 1262 546
1824 -176 121 -527 189 -736 144z m360 -514 c337 -115 436 -562 181 -818 -196
-195 -506 -195 -702 0 -374 375 18 989 521 818z"/>
</g>
</svg>
