<?xml version="1.0" encoding="utf-8"?>
<svg width="800px" height="800px" viewBox="0 0 24 24" fill="none" xmlns="http://www.w3.org/2000/svg">
  <path fill-rule="evenodd" clip-rule="evenodd" d="M13 6C14.1046 6 15 5.10457 15 4C15 2.89543 14.1046 2 13 2C11.8955 2 11 2.89543 11 4C11 5.10457 11.8955 6 13 6ZM11.0528 6.60557C11.3841 6.43992 11.7799 6.47097 12.0813 6.68627L13.0813 7.40056C13.3994 7.6278 13.5559 8.01959 13.482 8.40348L12.4332 13.847L16.8321 20.4453C17.1384 20.9048 17.0143 21.5257 16.5547 21.8321C16.0952 22.1384 15.4743 22.0142 15.168 21.5547L10.5416 14.6152L9.72611 13.3919C9.58336 13.1778 9.52866 12.9169 9.57338 12.6634L10.1699 9.28309L8.38464 10.1757L7.81282 13.0334C7.70445 13.575 7.17759 13.9261 6.63604 13.8178C6.09449 13.7094 5.74333 13.1825 5.85169 12.641L6.51947 9.30379C6.58001 9.00123 6.77684 8.74356 7.05282 8.60557L11.0528 6.60557ZM16.6838 12.9487L13.8093 11.9905L14.1909 10.0096L17.3163 11.0513C17.8402 11.226 18.1234 11.7923 17.9487 12.3162C17.7741 12.8402 17.2078 13.1234 16.6838 12.9487ZM6.12844 20.5097L9.39637 14.7001L9.70958 15.1699L10.641 16.5669L7.87159 21.4903C7.60083 21.9716 6.99111 22.1423 6.50976 21.8716C6.0284 21.6008 5.85768 20.9911 6.12844 20.5097Z" fill="#000000"/>
  <g id="SVGRepo_bgCarrier" stroke-width="0" transform="matrix(0.847667, 0.530529, -0.530529, 0.847667, 25.5508, -30.9757)"/>
  <g id="SVGRepo_tracerCarrier" stroke-linecap="round" stroke-linejoin="round" transform="matrix(0.847667, 0.530529, -0.530529, 0.847667, 25.5508, -30.9757)"/>
  <g id="SVGRepo_iconCarrier" transform="matrix(0.847667, 0.530529, -0.530529, 0.847667, 25.5508, -30.9757)">
    <g id="Group_96" data-name="Group 96" transform="translate(-374.744 -203.678)">
      <g id="Group_95" data-name="Group 95" style="" transform="matrix(0.119058, 0, 0, 0.119058, 342.641, 213.605)">
        <path id="Path_241" data-name="Path 241" d="M406.289,229.608a5.924,5.924,0,1,1-5.924-5.924A5.924,5.924,0,0,1,406.289,229.608Z" fill="#5a6271"/>
        <path id="Path_242" data-name="Path 242" d="M400.365,234.348a5.925,5.925,0,0,1-5.894-5.332,5.8,5.8,0,0,0-.03.592,5.924,5.924,0,1,0,11.848,0c0-.2-.011-.4-.029-.592A5.928,5.928,0,0,1,400.365,234.348Z" fill="#5a6271" opacity="0.2" style="mix-blend-mode: multiply;isolation: isolate"/>
        <path id="Path_243" data-name="Path 243" d="M404.2,226.35c0,1.084-1.719,1.961-3.838,1.961s-3.838-.877-3.838-1.961,1.719-1.963,3.838-1.963S404.2,225.266,404.2,226.35Z" fill="#5a6271" opacity="0.8" style="mix-blend-mode: screen;isolation: isolate"/>
      </g>
      <path id="Path_244" data-name="Path 244" d="M 391.345 242.016 C 391.207 242.016 391.122 241.867 391.19 241.748 C 391.196 241.738 391.203 241.729 391.21 241.721 C 391.81 241.027 391.433 239.944 390.532 239.771 C 389.632 239.599 388.882 240.466 389.183 241.333 C 389.232 241.475 389.308 241.607 389.407 241.721 C 389.497 241.825 389.44 241.987 389.305 242.013 C 389.243 242.025 389.178 242.003 389.137 241.954 C 388.357 241.053 388.846 239.645 390.017 239.42 C 391.188 239.196 392.163 240.323 391.771 241.45 C 391.707 241.635 391.608 241.806 391.48 241.954 C 391.446 241.994 391.397 242.016 391.345 242.016 Z" fill="#ffc52f" style=""/>
      <path id="Path_245" data-name="Path 245" d="M 389.012 242.764 C 388.973 242.764 388.934 242.751 388.903 242.726 C 387.506 241.645 387.805 239.456 389.44 238.788 C 391.075 238.119 392.821 239.471 392.583 241.222 C 392.501 241.818 392.189 242.358 391.714 242.726 C 391.605 242.81 391.446 242.745 391.428 242.608 C 391.42 242.545 391.445 242.483 391.495 242.444 C 392.675 241.531 392.423 239.683 391.042 239.118 C 389.661 238.554 388.187 239.696 388.389 241.174 C 388.457 241.677 388.72 242.133 389.122 242.444 C 389.23 242.528 389.207 242.699 389.08 242.751 C 389.059 242.759 389.036 242.764 389.012 242.764 Z" fill="#ffc52f" style=""/>
      <path id="Path_246" data-name="Path 246" d="M 388.724 243.479 C 388.688 243.479 388.654 243.468 388.625 243.449 C 386.667 242.153 386.846 239.223 388.947 238.175 C 391.049 237.128 393.496 238.748 393.353 241.091 C 393.295 242.047 392.79 242.92 391.992 243.449 C 391.879 243.528 391.724 243.456 391.711 243.319 C 391.705 243.252 391.737 243.187 391.795 243.151 C 393.524 242.007 393.366 239.42 391.51 238.495 C 389.655 237.57 387.494 239 387.62 241.069 C 387.672 241.913 388.117 242.684 388.822 243.151 C 388.937 243.227 388.926 243.399 388.803 243.46 C 388.778 243.472 388.751 243.479 388.724 243.479 Z" fill="#ffc52f" style=""/>
    </g>
  </g>
</svg>