<svg width="38" height="42" xmlns="http://www.w3.org/2000/svg" preserveAspectRatio="xMinYMin meet">
 <defs>
  <!-- Gradient de la forme principale -->
  <linearGradient y2="0.55142" x2="1.10331" y1="0.44741" x1="-0.11833" id="gradMain">
   <stop stop-color="#0082F8" offset="0"/>
   <stop stop-color="#1C40F2" offset="1"/>
  </linearGradient>
 </defs>
 <!-- Forme vectorielle avec dégradé -->
 <!-- Éléments blancs au premier plan -->
 <g>
  <title>Layer 1</title>
  <path stroke="null" id="svg_1" d="m15.125,1.41719c2.42187,-1.35625 5.32812,-1.35625 7.75,0l10.94687,6.39375c2.325,1.35625 3.77813,3.875 3.77813,6.5875l0,13.07813c0,2.7125 -1.45313,5.23125 -3.77813,6.5875l-10.94687,6.39375c-2.42188,1.35625 -5.32813,1.35625 -7.75,0l-10.94688,-6.39375c-2.325,-1.35625 -3.77813,-3.875 -3.77813,-6.5875l0,-13.07813c0,-2.7125 1.45313,-5.23125 3.77812,-6.5875l10.94688,-6.39375z" fill="url(#gradMain)"/>
  <g id="svg_2" fill="#FFFFFF">
   <path id="svg_3" d="m26.5,18.25l-0.1,-0.1l3.2,-3.4l-1.9,0l-3.8,4.3l1.1,0.3l0.3,0.1c2.1,0.8 3.7,2.7 3.7,5c0,2.9 -2.3,5.5 -5.2,5.7c-0.2,0 -0.4,0 -0.6,0c-2,-0.1 -3.8,-1.4 -4.7,-3.2c-0.1,-0.2 -0.2,-0.4 -0.2,-0.6l1.8,0c0,0.1 0.1,0.1 0.1,0.2c1,1.8 3.3,2.5 5.1,1.5c1.8,-1 2.5,-3.3 1.5,-5.1s-3.3,-2.5 -5.1,-1.5l0,0l-1.1,-1.1l4.9,-5.4l-12.8,0l0,15.1l-2.6,0l0,-12l-1.3,0l0,11.8l0,0.8l0,0.6l5.4,0l0,-15.2l8.2,0l-3.9,4.3l3.1,2.8l0.5,-0.4l0.1,-0.1c0.2,-0.1 0.4,-0.2 0.6,-0.3c1.2,-0.4 2.5,0.3 2.9,1.5s-0.3,2.5 -1.5,2.9s-2.5,-0.3 -2.9,-1.5l0,0l-0.2,-0.5l-4.7,0c0,0 0,0.2 0.1,0.8c0.1,0.6 0.3,1.3 0.6,1.8c1.1,2.3 3.3,3.9 5.9,4l0.4,0c0.1,0 0.2,0 0.4,0c3.7,-0.2 6.5,-3.4 6.5,-7.1c-0.1,-2.5 -1.5,-4.8 -3.8,-6z"/>
   <rect id="svg_4" height="1.3" width="7.6" y="14.75" x="2.7"/>
   <polygon id="svg_5" points="2.6999998092651367,10.950000286102295 2.6999998092651367,12.250000476837158 31.90000057220459,12.250000476837158 33.10000133514404,10.950000286102295 "/>
   <path id="svg_6" d="m34.1,12.95c0.4,0 0.8,0.2 1.1,0.5s0.5,0.7 0.5,1.1s-0.2,0.8 -0.5,1.1c-0.3,0.3 -0.7,0.5 -1.1,0.5c-0.4,0 -0.8,-0.2 -1.1,-0.5s-0.5,-0.7 -0.5,-1.1s0.2,-0.8 0.5,-1.1c0.3,-0.3 0.7,-0.5 1.1,-0.5zm0,2.9c0.4,0 0.7,-0.1 0.9,-0.4c0.3,-0.3 0.4,-0.6 0.4,-0.9c0,-0.4 -0.1,-0.7 -0.4,-0.9c-0.3,-0.3 -0.6,-0.4 -0.9,-0.4c-0.4,0 -0.7,0.1 -0.9,0.4c-0.3,0.3 -0.4,0.6 -0.4,0.9c0,0.4 0.1,0.7 0.4,0.9c0.2,0.3 0.5,0.4 0.9,0.4zm0.7,-1c0,0.2 -0.1,0.3 -0.3,0.4c-0.1,0.1 -0.3,0.1 -0.5,0.1s-0.4,-0.1 -0.6,-0.2c-0.1,-0.2 -0.2,-0.4 -0.2,-0.6c0,-0.3 0.1,-0.5 0.2,-0.6c0.1,-0.2 0.3,-0.2 0.6,-0.2c0.2,0 0.3,0 0.4,0.1s0.2,0.2 0.3,0.4l-0.2,0.1c-0.1,-0.2 -0.2,-0.3 -0.5,-0.3c-0.2,0 -0.3,0.1 -0.4,0.2c-0.1,0.1 -0.1,0.3 -0.1,0.5s0,0.4 0.1,0.5s0.2,0.2 0.4,0.2c0.1,0 0.2,0 0.3,-0.1s0.2,-0.2 0.2,-0.3l0.3,-0.2z"/>
  </g>
 </g>
</svg>